<svg xmlns="http://www.w3.org/2000/svg" width="1200" height="800" viewBox="0 0 1200 800" role="img" aria-labelledby="title desc">
  <title id="title">Application de formatage Excel vers SQL</title>
  <desc id="desc">Un fichier Excel est contrôlé et transformé par une application Python en requêtes SQL prêtes pour SQL Server.</desc>
  <defs>
    <linearGradient id="bg" x1="120" y1="70" x2="1080" y2="730" gradientUnits="userSpaceOnUse"><stop stop-color="#07182E"/><stop offset="1" stop-color="#123B61"/></linearGradient>
    <linearGradient id="panel" x1="0" y1="0" x2="1" y2="1"><stop stop-color="#FFFFFF"/><stop offset="1" stop-color="#EAF4FC"/></linearGradient>
    <linearGradient id="sql" x1="0" y1="0" x2="1" y2="1"><stop stop-color="#38BDF8"/><stop offset="1" stop-color="#2563EB"/></linearGradient>
    <filter id="shadow" x="-30%" y="-30%" width="160%" height="170%"><feDropShadow dx="0" dy="15" stdDeviation="18" flood-color="#020A13" flood-opacity=".28"/></filter>
  </defs>
  <rect width="1200" height="800" rx="42" fill="url(#bg)"/><circle cx="1080" cy="80" r="220" fill="#2F8CFF" opacity=".10"/><circle cx="105" cy="745" r="250" fill="#12B76A" opacity=".07"/>
  <g opacity=".09" stroke="#D8ECFF"><path d="M70 120h1060M70 200h1060M70 280h1060M70 360h1060M70 440h1060M70 520h1060M70 600h1060M70 680h1060"/><path d="M120 70v660M240 70v660M360 70v660M480 70v660M600 70v660M720 70v660M840 70v660M960 70v660M1080 70v660"/></g>
  <g fill="none" stroke="#78CDF7" stroke-width="6" stroke-linecap="round"><path d="M375 405h105"/><path d="M720 405h105"/></g><g fill="#78CDF7"><path d="m468 389 28 16-28 16Z"/><path d="m813 389 28 16-28 16Z"/></g>
  <g filter="url(#shadow)"><rect x="115" y="205" width="260" height="390" rx="32" fill="url(#panel)"/><path d="M115 237a32 32 0 0 1 32-32h48v390h-48a32 32 0 0 1-32-32Z" fill="#138A55"/><path d="m139 354 34 51-34 51M173 354l-34 51 34 51" fill="none" stroke="#FFF" stroke-width="13" stroke-linecap="round"/><g stroke="#BDD2E2" stroke-width="3"><path d="M224 300h115M224 350h115M224 400h115M224 450h115M224 500h115"/><path d="M263 275v250M302 275v250"/></g><rect x="224" y="252" width="91" height="11" rx="5.5" fill="#7E9DB4"/></g>
  <g filter="url(#shadow)"><rect x="480" y="242" width="240" height="326" rx="38" fill="#0A2947" stroke="#4F8CB8" stroke-width="3"/><circle cx="600" cy="360" r="74" fill="#1769D4"/><path d="M565 322c0-17 13-29 32-29h34v28h-42v14h58c16 0 28 12 28 28v23h-30v-20h-80c-16 0-28-13-28-29v-15Z" fill="#E7F4FF"/><circle cx="616" cy="307" r="5" fill="#1769D4"/><path d="M635 398c0 17-13 29-32 29h-34v-28h42v-14h-58c-16 0-28-12-28-28v-23h30v20h80c16 0 28 13 28 29v15Z" fill="#F7C948"/><circle cx="584" cy="413" r="5" fill="#9B6508"/><rect x="525" y="467" width="150" height="60" rx="16" fill="#061B30"/><path d="m550 497 13 13 25-28" fill="none" stroke="#4ADE80" stroke-width="8" stroke-linecap="round" stroke-linejoin="round"/><rect x="605" y="485" width="45" height="8" rx="4" fill="#BAD9EA"/><rect x="605" y="504" width="31" height="7" rx="3.5" fill="#668EA6"/></g>
  <g filter="url(#shadow)"><rect x="825" y="205" width="260" height="390" rx="32" fill="url(#panel)"/><rect x="857" y="247" width="196" height="135" rx="22" fill="#0A2947"/><ellipse cx="955" cy="281" rx="61" ry="22" fill="#7DE0FC"/><path d="M894 281v58c0 12 27 22 61 22s61-10 61-22v-58" fill="url(#sql)"/><ellipse cx="955" cy="310" rx="61" ry="22" fill="#287AC2" stroke="#A5ECFF" stroke-width="3"/><ellipse cx="955" cy="339" rx="61" ry="22" fill="#205E9E" stroke="#A5ECFF" stroke-width="3"/><rect x="857" y="411" width="196" height="137" rx="20" fill="#E2EEF6"/><g fill="none" stroke-linecap="round" stroke-linejoin="round"><path d="m897 449-17 16 17 16M1013 449l17 16-17 16" stroke="#245F88" stroke-width="7"/><path d="m975 440-34 51" stroke="#2187D9" stroke-width="8"/></g><rect x="888" y="516" width="134" height="9" rx="4.5" fill="#87A9BE"/></g>
  <g transform="translate(733 542)" filter="url(#shadow)"><circle r="49" fill="#0A2947" stroke="#9EE7FC" stroke-width="4"/><path d="M0-28c15 10 27 11 27 11V6c0 17-12 28-27 35C-15 34-27 23-27 6v-23s12-1 27-11Z" fill="#22C55E"/><path d="m-13 7 9 9 19-22" fill="none" stroke="#FFF" stroke-width="7" stroke-linecap="round" stroke-linejoin="round"/></g>
</svg>
